<svg width="46" height="46" viewBox="0 0 46 46" fill="none" xmlns="http://www.w3.org/2000/svg">
<g clip-path="url(#clip0_1201_123)">
<path d="M23.0012 46.0004C35.7032 46.0004 46.0002 35.7034 46.0002 23.0014C46.0002 10.2994 35.7032 0.00244141 23.0012 0.00244141C10.2992 0.00244141 0.00219727 10.2994 0.00219727 23.0014C0.00219727 35.7034 10.2992 46.0004 23.0012 46.0004Z" fill="#D62427"/>
<path d="M0.000976562 23.0001C0.000976562 10.2966 10.2983 0 23.0004 0C35.7033 0 35.7033 46 23.0004 46C10.2986 45.9996 0.000976562 35.7023 0.000976562 23.0001Z" fill="#DC3027"/>
<path d="M13.2672 6.33252L14.3404 9.63723H17.8154L15.0043 11.6785L16.0781 14.9832L13.2672 12.9413L10.4565 14.9832L11.5303 11.6785L8.71948 9.63723H12.1935L13.2672 6.33252Z" fill="#F8D12E"/>
<path d="M21.3724 4.45264L21.034 5.61186L22.0313 6.29203L20.8249 6.32728L20.4872 7.48718L20.0794 6.3501L18.8722 6.38681L19.8277 5.64779L19.4199 4.51149L20.4178 5.19166L21.3724 4.45264Z" fill="#F8D12E"/>
<path d="M21.3724 14.834L21.034 15.9928L22.0313 16.673L20.8249 16.7086L20.4872 17.8681L20.0794 16.7312L18.8722 16.7682L19.8277 16.0291L19.4199 14.8928L20.4178 15.5723L21.3724 14.834Z" fill="#F8D12E"/>
<path d="M24.3152 7.6167L23.9767 8.77592L24.9744 9.45609L23.7677 9.49202L23.4294 10.6512L23.0217 9.51417L21.8149 9.55087L22.7697 8.81185L22.3625 7.67555L23.3606 8.35572L24.3152 7.6167Z" fill="#F8D12E"/>
<path d="M24.3152 11.8491L23.9767 13.0083L24.9744 13.6885L23.7677 13.7241L23.4294 14.8837L23.0217 13.747L21.8149 13.7837L22.7697 13.0447L22.3625 11.9083L23.3606 12.5878L24.3152 11.8491Z" fill="#F8D12E"/>
</g>
<defs>
<clipPath id="clip0_1201_123">
<rect width="46" height="46" fill="white"/>
</clipPath>
</defs>
</svg>
