<svg width="46" height="46" viewBox="0 0 46 46" fill="none" xmlns="http://www.w3.org/2000/svg">
<g clip-path="url(#clip0_1201_56)">
<path d="M23.0012 46C35.7032 46 46.0002 35.703 46.0002 23.001C46.0002 10.299 35.7032 0.00195312 23.0012 0.00195312C10.2992 0.00195312 0.00219727 10.299 0.00219727 23.001C0.00219727 35.703 10.2992 46 23.0012 46Z" fill="white"/>
<path d="M44.6854 15.3315H30.5143C31.1299 20.2447 31.1335 25.6583 30.5263 30.5776H44.7156C45.544 28.2044 45.9993 25.6558 45.9993 23.0004C45.9997 20.3101 45.5338 17.7302 44.6854 15.3315Z" fill="#2B479D"/>
<path d="M30.5143 15.3312H44.6851C44.6829 15.3239 44.6807 15.3178 44.6778 15.3112C41.7344 7.01133 34.1625 0.904832 25.0651 0.0942383C28.586 2.02405 29.6144 8.13822 30.5143 15.3312Z" fill="#EFECEC"/>
<path d="M25.0658 45.9047C34.1796 45.0927 41.762 38.9651 44.6941 30.643C44.7017 30.6208 44.7082 30.599 44.7162 30.5776H30.5266C29.6336 37.8096 28.6008 43.9669 25.0658 45.9047Z" fill="#E63026"/>
<path d="M0 22.9999C0 25.6557 0.456135 28.2039 1.28372 30.5772H31.7102C32.3181 25.6575 32.3137 20.2442 31.6989 15.3311H1.31431C0.465943 17.7298 0 20.3097 0 22.9999Z" fill="#3757A6"/>
<path d="M1.32149 15.3114C1.31936 15.3179 1.31712 15.3241 1.31421 15.3314H31.6989C30.7983 8.13827 28.5859 2.0242 25.0655 0.0943928C24.3845 0.0340863 23.696 1.10687e-09 22.9995 1.10687e-09C12.9942 -9.71109e-05 4.48569 6.38997 1.32149 15.3114Z" fill="#EFEFEF"/>
<path d="M31.7101 30.5771H1.28369C1.29136 30.5986 1.29855 30.6204 1.30583 30.6425C4.45741 39.5867 12.9781 45.9994 22.9995 45.9994C23.6961 45.9994 24.3846 45.9652 25.0654 45.9042C28.6008 43.9665 30.8171 37.8092 31.7101 30.5771Z" fill="#E73B36"/>
</g>
<defs>
<clipPath id="clip0_1201_56">
<rect width="46" height="46" fill="white"/>
</clipPath>
</defs>
</svg>
