<svg width="46" height="46" viewBox="0 0 46 46" fill="none" xmlns="http://www.w3.org/2000/svg">
<g clip-path="url(#clip0_1201_65)">
<path d="M45.8982 25.1514H0.10376V25.1521H45.8982V25.1514Z" fill="#C42126"/>
<path d="M43.5112 12.5957H2.48889V12.5964H43.5112V12.5957Z" fill="#C42126"/>
<path d="M45.1409 16.7803H0.857544V16.781H45.1409V16.7803Z" fill="#C42126"/>
<path d="M9.88537 41.8906H36.115L36.1164 41.8892H9.88391L9.88537 41.8906Z" fill="#C42126"/>
<path d="M22.9998 0C22.5481 0 22.0999 0.0163149 21.655 0.0417584H24.3449C23.8997 0.0163149 23.4516 0 22.9998 0Z" fill="#C42126"/>
<path d="M45.9039 20.9658H0.0949707V20.9665H45.9039V20.9658Z" fill="#C42126"/>
<path d="M29.7978 8.41105H40.7805C39.476 6.82297 37.9599 5.41717 36.2802 4.22705H28.0332C28.7156 5.42765 29.3025 6.84433 29.7978 8.41105Z" fill="#E7E7E7"/>
<path d="M28.0332 4.22706H36.2802C32.8709 1.811 28.7777 0.297981 24.345 0.0419922H23.6368C25.7232 0.304585 26.6815 1.84867 28.0332 4.22706Z" fill="#DC3027"/>
<path d="M45.1424 16.7807C44.7335 15.3222 44.1851 13.9229 43.5111 12.5967H30.876C31.132 13.94 31.334 15.3432 31.4835 16.7807H45.1424Z" fill="#E7E7E7"/>
<path d="M30.1653 12.5958H43.5107C42.7503 11.1 41.8366 9.69632 40.7805 8.41113H29.1227C29.5338 9.71234 29.8828 11.116 30.1653 12.5958Z" fill="#DC3027"/>
<path d="M31.9673 25.1501H45.8963C45.9624 24.4424 45.9998 23.7251 45.9998 23.0002C45.9998 22.3142 45.9639 21.637 45.905 20.9658H31.9706C32.016 22.3574 32.0152 23.7593 31.9673 25.1501Z" fill="#E7E7E7"/>
<path d="M45.9054 20.9653C45.7793 19.5282 45.5204 18.13 45.1424 16.7812H30.8967C31.0398 18.1514 31.1343 19.5532 31.1804 20.9653H45.9054Z" fill="#DC3027"/>
<path d="M30.6356 33.5201H43.4507C44.1342 32.1953 44.6912 30.795 45.1089 29.3354H31.2551C31.1026 30.775 30.8955 32.1779 30.6356 33.5201Z" fill="#E7E7E7"/>
<path d="M45.1094 29.3349C45.4954 27.9865 45.7634 26.5883 45.8967 25.1509H31.5333C31.4843 26.564 31.387 27.9654 31.241 29.3349H45.1094Z" fill="#DC3027"/>
<path d="M36.1164 41.8891C37.8203 40.7037 39.3579 39.2965 40.6831 37.7051H29.8919C29.3874 39.2783 28.7886 40.6927 28.0938 41.8891H36.1164Z" fill="#E7E7E7"/>
<path d="M29.4858 37.7047H40.6831C41.7515 36.421 42.679 35.0173 43.4507 33.52H30.5415C30.255 35.0009 29.9024 36.4052 29.4858 37.7047Z" fill="#DC3027"/>
<path d="M22.1663 45.9836C22.1198 45.9821 22.0734 45.98 22.0269 45.9785C22.0734 45.9799 22.1199 45.9821 22.1663 45.9836Z" fill="#DC3027"/>
<path d="M22.9999 46.0001C27.876 46.0001 32.3941 44.4781 36.115 41.8906H27.791C26.3137 44.4359 25.3389 46.0001 22.9999 46.0001Z" fill="#DC3027"/>
<path d="M22.9999 46.0002C22.7206 46.0002 22.4432 45.9937 22.1665 45.9839C22.4461 45.9933 22.7238 46.0002 22.9999 46.0002Z" fill="#C42126"/>
<path d="M28.7947 4.22705H9.72017C8.04021 5.41717 6.52438 6.82287 5.21948 8.41105H30.559C30.0636 6.84433 29.4771 5.42765 28.7947 4.22705Z" fill="#F3F4F5"/>
<path d="M9.72009 4.22706H28.7947C27.4427 1.84867 25.7231 0.304585 23.6367 0.0419922H21.6549C17.2222 0.297981 13.129 1.811 9.72009 4.22706Z" fill="#E73625"/>
<path d="M0.858032 16.7807H32.2089C32.0592 15.3429 31.8573 13.94 31.6014 12.5967H2.48933C1.81527 13.923 1.26697 15.3222 0.858032 16.7807Z" fill="#F3F4F5"/>
<path d="M5.21958 8.41113C4.16426 9.69632 3.24985 11.0999 2.48975 12.5958H31.6014C31.3192 11.1163 30.9702 9.71273 30.5591 8.41113C30.5591 8.41113 5.21958 8.41113 5.21958 8.41113Z" fill="#E73625"/>
<path d="M0.000244141 23.0004C0.000244141 23.7253 0.0380209 24.4426 0.103766 25.1503H32.4899C32.5379 23.7594 32.5386 22.3579 32.4932 20.9663H0.095026C0.0361758 21.6372 0.000244141 22.3144 0.000244141 23.0004Z" fill="#F3F4F5"/>
<path d="M0.0949707 20.9653H32.4928C32.4467 19.5529 32.3519 18.1515 32.2091 16.7812H0.857596C0.479537 18.1303 0.220634 19.5282 0.0949707 20.9653Z" fill="#E73625"/>
<path d="M32.1976 29.335H0.890991C1.30867 30.7949 1.8661 32.1948 2.54919 33.5196H31.578C31.8381 32.1777 32.0446 30.7748 32.1976 29.335Z" fill="#F3F4F5"/>
<path d="M0.891052 29.3349H32.1976C32.3433 27.9654 32.4409 26.5636 32.4899 25.1509H0.10376C0.236998 26.5886 0.505417 27.9865 0.891052 29.3349Z" fill="#E73625"/>
<path d="M9.88386 41.8891H28.7246C29.4193 40.6925 30.0185 39.2783 30.5226 37.7051H5.31714C6.64234 39.2965 8.17953 40.7037 9.88386 41.8891Z" fill="#F3F4F5"/>
<path d="M2.54956 33.52C3.32131 35.0173 4.24874 36.421 5.31717 37.7047H30.5226C30.9389 36.4053 31.2915 35.001 31.578 33.52H2.54956Z" fill="#E73625"/>
<path d="M22.0269 45.9788C22.0734 45.9802 22.1198 45.9824 22.1663 45.9838C22.4431 45.9936 22.7206 46.0001 22.9998 46.0001C25.3389 46.0001 27.2462 44.436 28.7239 41.8906H9.88538C13.3569 44.305 17.5238 45.7911 22.0269 45.9788Z" fill="#E73625"/>
<path d="M22.5244 0.0117188C10.7381 0.25149 1.13176 9.35182 0.0979004 20.9275H22.5248V0.0117188H22.5244Z" fill="#283991"/>
<path d="M4.6023 13.0312L4.95268 14.1102H6.08793L5.16954 14.7773L5.52031 15.857L4.6023 15.1895L3.68459 15.857L4.03468 14.7773L3.11658 14.1102H4.25182L4.6023 13.0312Z" fill="#EFEFEF"/>
<path d="M4.6023 16.8428L4.95268 17.9224H6.08793L5.16954 18.5895L5.52031 19.6692L4.6023 19.0017L3.68459 19.6692L4.03468 18.5895L3.11658 17.9224H4.25182L4.6023 16.8428Z" fill="#EFEFEF"/>
<path d="M8.4147 7.31201L8.76518 8.39132H9.90004L8.98194 9.05887L9.33242 10.1378L8.4147 9.47102L7.4966 10.1378L7.84708 9.05887L6.92859 8.39132H8.06384L8.4147 7.31201Z" fill="#EFEFEF"/>
<path d="M8.4147 11.1245L8.76518 12.2038H9.90004L8.98194 12.8706L9.33242 13.9503L8.4147 13.2835L7.4966 13.9503L7.84708 12.8706L6.92859 12.2038H8.06384L8.4147 11.1245Z" fill="#EFEFEF"/>
<path d="M8.4147 14.937L8.76518 16.0167H9.90004L8.98194 16.6831L9.33242 17.7628L8.4147 17.0953L7.4966 17.7628L7.84708 16.6831L6.92859 16.0167H8.06384L8.4147 14.937Z" fill="#EFEFEF"/>
<path d="M1.70781 17.7627L1.35704 16.683L2.27514 16.0163H1.14058L1.11513 15.9375C0.990537 16.3228 0.877983 16.7128 0.77417 17.1072L0.790193 17.0953L1.70781 17.7627Z" fill="#EFEFEF"/>
<path d="M3.68456 12.0443L4.60228 11.3769L5.52038 12.0443L5.16961 10.9646L6.08771 10.2972H4.95246L4.60199 9.21826L4.25151 10.2972H3.83315C3.75546 10.4149 3.68029 10.5333 3.60474 10.6527L4.03475 10.9646L3.68456 12.0443Z" fill="#EFEFEF"/>
<path d="M8.41473 5.6587L9.33244 6.32548L8.98196 5.24656L9.89968 4.5791H9.24417C8.68742 4.99533 8.15029 5.43583 7.63424 5.90061L7.49585 6.32548L8.41473 5.6587Z" fill="#EFEFEF"/>
<path d="M11.3091 4.41958L12.2272 3.75213L13.1449 4.41958L12.7944 3.33989L13.7121 2.67311H12.5773L12.5297 2.52783C12.1451 2.72429 11.7645 2.92871 11.3926 3.14624L11.6592 3.33979L11.3091 4.41958Z" fill="#EFEFEF"/>
<path d="M12.2271 5.40625L12.5776 6.48488H13.7124L12.7943 7.15234L13.1448 8.23203L12.2271 7.56448L11.309 8.23203L11.6595 7.15234L10.7411 6.48488H11.8762L12.2271 5.40625Z" fill="#EFEFEF"/>
<path d="M12.2271 9.21875L12.5776 10.2974H13.7124L12.7943 10.9648L13.1448 12.0445L12.2271 11.377L11.309 12.0445L11.6595 10.9648L10.7411 10.2974H11.8762L12.2271 9.21875Z" fill="#EFEFEF"/>
<path d="M12.2271 13.0312L12.5776 14.1102H13.7124L12.7943 14.7773L13.1448 15.857L12.2271 15.1895L11.309 15.857L11.6595 14.7773L10.7411 14.1102H11.8762L12.2271 13.0312Z" fill="#EFEFEF"/>
<path d="M12.2271 16.8428L12.5776 17.9224H13.7124L12.7943 18.5895L13.1448 19.6692L12.2271 19.0017L11.309 19.6692L11.6595 18.5895L10.7411 17.9224H11.8762L12.2271 16.8428Z" fill="#EFEFEF"/>
<path d="M16.0396 3.49951L16.3901 4.57882H17.5249L16.6072 5.24637L16.9573 6.3253L16.0396 5.65852L15.1212 6.3253L15.472 5.24637L14.5536 4.57882H15.6887L16.0396 3.49951Z" fill="#EFEFEF"/>
<path d="M16.0396 7.31201L16.3901 8.39132H17.5249L16.6072 9.05887L16.9573 10.1378L16.0396 9.47102L15.1212 10.1378L15.472 9.05887L14.5536 8.39132H15.6887L16.0396 7.31201Z" fill="#EFEFEF"/>
<path d="M16.0396 11.1245L16.3901 12.2038H17.5249L16.6072 12.8706L16.9573 13.9503L16.0396 13.2835L15.1212 13.9503L15.472 12.8706L14.5536 12.2038H15.6887L16.0396 11.1245Z" fill="#EFEFEF"/>
<path d="M16.0396 14.937L16.3901 16.0167H17.5249L16.6072 16.6831L16.9573 17.7628L16.0396 17.0953L15.1212 17.7628L15.472 16.6831L14.5536 16.0167H15.6887L16.0396 14.937Z" fill="#EFEFEF"/>
<path d="M19.852 1.59375L20.2025 2.67306H21.3373L20.4192 3.33984L20.7697 4.41953L19.852 3.75198L18.9336 4.41953L19.2844 3.33984L18.366 2.67306H19.5008L19.852 1.59375Z" fill="#EFEFEF"/>
<path d="M19.852 5.40625L20.2025 6.48488H21.3373L20.4192 7.15234L20.7697 8.23203L19.852 7.56448L18.9336 8.23203L19.2844 7.15234L18.366 6.48488H19.5008L19.852 5.40625Z" fill="#EFEFEF"/>
<path d="M19.852 9.21875L20.2025 10.2974H21.3373L20.4192 10.9648L20.7697 12.0445L19.852 11.377L18.9336 12.0445L19.2844 10.9648L18.366 10.2974H19.5008L19.852 9.21875Z" fill="#EFEFEF"/>
<path d="M19.852 13.0312L20.2025 14.1102H21.3373L20.4192 14.7773L20.7697 15.857L19.852 15.1895L18.9336 15.857L19.2844 14.7773L18.366 14.1102H19.5008L19.852 13.0312Z" fill="#EFEFEF"/>
<path d="M19.852 16.8428L20.2025 17.9224H21.3373L20.4192 18.5895L20.7697 19.6692L19.852 19.0017L18.9336 19.6692L19.2844 18.5895L18.366 17.9224H19.5008L19.852 16.8428Z" fill="#EFEFEF"/>
</g>
<defs>
<clipPath id="clip0_1201_65">
<rect width="46" height="46" fill="white"/>
</clipPath>
</defs>
</svg>
